<svg xmlns="http://www.w3.org/2000/svg" viewBox="0 0 1120 1480" width="1120" height="1480" role="img">
  <defs>
    <linearGradient id="bg" x1="0" y1="0" x2="0.4" y2="1">
      <stop offset="0" stop-color="#2B2119"/>
      <stop offset="0.55" stop-color="#181310"/>
      <stop offset="1" stop-color="#0B0908"/>
    </linearGradient>
    <radialGradient id="glow" cx="0.5" cy="0.24" r="0.62">
      <stop offset="0" stop-color="#E6AC72" stop-opacity="0.50"/>
      <stop offset="0.42" stop-color="#C77B45" stop-opacity="0.14"/>
      <stop offset="1" stop-color="#C77B45" stop-opacity="0"/>
    </radialGradient>
    <linearGradient id="niche" x1="0" y1="0" x2="0" y2="1">
      <stop offset="0" stop-color="#E0A36B" stop-opacity="0.20"/>
      <stop offset="1" stop-color="#E0A36B" stop-opacity="0.02"/>
    </linearGradient>
    <filter id="gr"><feTurbulence type="fractalNoise" baseFrequency="0.86" numOctaves="2" stitchTiles="stitch"/><feColorMatrix type="saturate" values="0"/></filter>
  </defs>
  <rect width="1120" height="1480" fill="url(#bg)"/>
  <rect width="1120" height="1480" fill="url(#glow)"/>
  <g>
    <rect x="170" y="420" width="220" height="560" rx="110" fill="url(#niche)"/>
    <rect x="450" y="360" width="220" height="620" rx="110" fill="url(#niche)"/>
    <rect x="730" y="420" width="220" height="560" rx="110" fill="url(#niche)"/>
  </g>
  <g stroke="#BCA88E" fill="none" stroke-width="2.5" opacity="0.34">
    <rect x="170" y="420" width="220" height="560" rx="110"/>
    <rect x="450" y="360" width="220" height="620" rx="110"/>
    <rect x="730" y="420" width="220" height="560" rx="110"/>
    <line x1="80" y1="1090" x2="1040" y2="1090"/>
    <line x1="560" y1="120" x2="560" y2="300"/>
  </g>
  <circle cx="560" cy="318" r="22" fill="none" stroke="#E0A36B" stroke-width="2.5" opacity="0.8"/>
  <circle cx="560" cy="318" r="7" fill="#E6AC72" opacity="0.85"/>
  <g stroke="#7C6A52" stroke-width="2" opacity="0.45">
    <line x1="240" y1="1170" x2="430" y2="1170"/><line x1="540" y1="1230" x2="760" y2="1230"/>
  </g>
  <rect width="1120" height="1480" filter="url(#gr)" opacity="0.17"/>
  <rect width="1120" height="1480" fill="#0B0908" opacity="0.11"/>
</svg>
