<svg xmlns="http://www.w3.org/2000/svg" viewBox="0 0 1600 1040" width="1600" height="1040" role="img">
  <defs>
    <linearGradient id="bg" x1="0.1" y1="0" x2="0.7" y2="1">
      <stop offset="0" stop-color="#241E19"/>
      <stop offset="0.55" stop-color="#161210"/>
      <stop offset="1" stop-color="#0C0A09"/>
    </linearGradient>
    <radialGradient id="glow" cx="0.30" cy="0.26" r="0.66">
      <stop offset="0" stop-color="#DE9E63" stop-opacity="0.44"/>
      <stop offset="0.44" stop-color="#C77B45" stop-opacity="0.12"/>
      <stop offset="1" stop-color="#C77B45" stop-opacity="0"/>
    </radialGradient>
    <filter id="gr"><feTurbulence type="fractalNoise" baseFrequency="0.8" numOctaves="2" stitchTiles="stitch"/><feColorMatrix type="saturate" values="0"/></filter>
  </defs>
  <rect width="1600" height="1040" fill="url(#bg)"/>
  <rect width="1600" height="1040" fill="url(#glow)"/>
  <g stroke="#BCA88E" fill="none" stroke-width="2.5" opacity="0.3" stroke-linecap="round">
    <line x1="140" y1="150" x2="1500" y2="118"/>
    <line x1="140" y1="232" x2="1500" y2="206"/>
    <line x1="140" y1="314" x2="1500" y2="294"/>
    <line x1="140" y1="396" x2="1500" y2="382"/>
    <line x1="120" y1="800" x2="1500" y2="800"/>
    <path d="M250 800 V690 H980 V800"/>
    <line x1="250" y1="724" x2="980" y2="724"/>
    <path d="M1120 800 V612 h250 v188" opacity="0.8"/>
    <line x1="1120" y1="660" x2="1370" y2="660" opacity="0.8"/>
  </g>
  <g fill="#E0A36B" opacity="0.6">
    <circle cx="470" cy="470" r="5"/><circle cx="700" cy="458" r="5"/><circle cx="930" cy="446" r="5"/>
  </g>
  <g stroke="#BCA88E" stroke-width="1.6" opacity="0.28">
    <line x1="470" y1="396" x2="470" y2="465"/><line x1="700" y1="384" x2="700" y2="453"/><line x1="930" y1="372" x2="930" y2="441"/>
  </g>
  <rect width="1600" height="1040" filter="url(#gr)" opacity="0.16"/>
  <rect width="1600" height="1040" fill="#0C0A09" opacity="0.1"/>
</svg>
