<svg xmlns="http://www.w3.org/2000/svg" viewBox="0 0 1600 940" width="1600" height="940" role="img">
  <defs>
    <linearGradient id="bg" x1="0.2" y1="0" x2="0.7" y2="1">
      <stop offset="0" stop-color="#2E2218"/>
      <stop offset="0.55" stop-color="#1A140F"/>
      <stop offset="1" stop-color="#0C0A09"/>
    </linearGradient>
    <radialGradient id="glow" cx="0.70" cy="0.30" r="0.66">
      <stop offset="0" stop-color="#E8AE74" stop-opacity="0.48"/>
      <stop offset="0.44" stop-color="#C77B45" stop-opacity="0.14"/>
      <stop offset="1" stop-color="#C77B45" stop-opacity="0"/>
    </radialGradient>
    <linearGradient id="recess" x1="0" y1="0" x2="0" y2="1">
      <stop offset="0" stop-color="#E0A36B" stop-opacity="0.20"/>
      <stop offset="1" stop-color="#E0A36B" stop-opacity="0.02"/>
    </linearGradient>
    <filter id="gr"><feTurbulence type="fractalNoise" baseFrequency="0.8" numOctaves="2" stitchTiles="stitch"/><feColorMatrix type="saturate" values="0"/></filter>
  </defs>
  <rect width="1600" height="940" fill="url(#bg)"/>
  <rect width="1600" height="940" fill="url(#glow)"/>
  <path d="M620 560 V330 a290 175 0 0 1 580 0 V560 Z" fill="url(#recess)"/>
  <g stroke="#BCA88E" fill="none" stroke-width="2.5" opacity="0.32" stroke-linecap="round">
    <path d="M620 560 V330 a290 175 0 0 1 580 0 V560"/>
    <path d="M712 560 V356 a198 122 0 0 1 396 0 V560" opacity="0.6"/>
    <line x1="110" y1="700" x2="1490" y2="700"/>
    <path d="M250 700 V592 H1230 V700"/>
    <line x1="370" y1="592" x2="370" y2="700"/><line x1="560" y1="592" x2="560" y2="700"/>
    <line x1="760" y1="592" x2="760" y2="700"/><line x1="960" y1="592" x2="960" y2="700"/>
    <line x1="1130" y1="592" x2="1130" y2="700"/>
    <line x1="1340" y1="700" x2="1340" y2="430"/>
  </g>
  <ellipse cx="1340" cy="416" rx="52" ry="20" fill="none" stroke="#BCA88E" stroke-width="2.4" opacity="0.34"/>
  <circle cx="1340" cy="416" r="28" fill="#E8AE74" opacity="0.4"/>
  <rect width="1600" height="940" filter="url(#gr)" opacity="0.16"/>
  <rect width="1600" height="940" fill="#0C0A09" opacity="0.1"/>
</svg>
