<svg xmlns="http://www.w3.org/2000/svg" viewBox="0 0 1120 1400" width="1120" height="1400" role="img">
  <defs>
    <linearGradient id="bg" x1="0" y1="0" x2="0.3" y2="1">
      <stop offset="0" stop-color="#26201B"/>
      <stop offset="0.55" stop-color="#171310"/>
      <stop offset="1" stop-color="#0B0908"/>
    </linearGradient>
    <radialGradient id="glow" cx="0.5" cy="0.34" r="0.7">
      <stop offset="0" stop-color="#E2A468" stop-opacity="0.46"/>
      <stop offset="0.45" stop-color="#C77B45" stop-opacity="0.13"/>
      <stop offset="1" stop-color="#C77B45" stop-opacity="0"/>
    </radialGradient>
    <linearGradient id="floor" x1="0" y1="0" x2="0" y2="1">
      <stop offset="0" stop-color="#F1ECE3" stop-opacity="0.12"/>
      <stop offset="1" stop-color="#F1ECE3" stop-opacity="0"/>
    </linearGradient>
    <filter id="gr"><feTurbulence type="fractalNoise" baseFrequency="0.85" numOctaves="2" stitchTiles="stitch"/><feColorMatrix type="saturate" values="0"/></filter>
  </defs>
  <rect width="1120" height="1400" fill="url(#bg)"/>
  <rect width="1120" height="1400" fill="url(#glow)"/>
  <polygon points="150,170 970,170 1080,1010 40,1010" fill="url(#floor)"/>
  <g stroke="#BCA88E" fill="none" stroke-width="2.5" opacity="0.32">
    <line x1="150" y1="170" x2="150" y2="1010"/>
    <line x1="380" y1="170" x2="380" y2="1010"/>
    <line x1="610" y1="170" x2="610" y2="1010"/>
    <line x1="840" y1="170" x2="840" y2="1010"/>
    <line x1="970" y1="170" x2="970" y2="1010"/>
    <line x1="120" y1="170" x2="1000" y2="170"/>
    <line x1="120" y1="470" x2="1000" y2="470"/>
    <line x1="40" y1="1010" x2="1080" y2="1010"/>
    <path d="M250 1010 V900 q170 -22 360 0 V1010" opacity="0.75"/>
    <line x1="780" y1="1010" x2="780" y2="858"/>
    <circle cx="780" cy="846" r="34" opacity="0.8"/>
  </g>
  <g stroke="#7C6A52" stroke-width="2" opacity="0.5">
    <line x1="190" y1="690" x2="345" y2="690"/><line x1="430" y1="730" x2="560" y2="730"/>
    <line x1="650" y1="660" x2="800" y2="660"/>
  </g>
  <rect width="1120" height="1400" filter="url(#gr)" opacity="0.17"/>
  <rect width="1120" height="1400" fill="#0B0908" opacity="0.12"/>
</svg>
