<svg xmlns="http://www.w3.org/2000/svg" viewBox="0 0 1600 1067" width="1600" height="1067" role="img">
  <defs>
    <linearGradient id="bg" x1="0.1" y1="0" x2="0.6" y2="1">
      <stop offset="0" stop-color="#2D221A"/>
      <stop offset="0.55" stop-color="#191310"/>
      <stop offset="1" stop-color="#0C0A09"/>
    </linearGradient>
    <radialGradient id="glow" cx="0.5" cy="0.32" r="0.66">
      <stop offset="0" stop-color="#E8AE74" stop-opacity="0.46"/>
      <stop offset="0.44" stop-color="#C77B45" stop-opacity="0.13"/>
      <stop offset="1" stop-color="#C77B45" stop-opacity="0"/>
    </radialGradient>
    <linearGradient id="alcove" x1="0" y1="0" x2="0" y2="1">
      <stop offset="0" stop-color="#E0A36B" stop-opacity="0.22"/>
      <stop offset="1" stop-color="#E0A36B" stop-opacity="0.02"/>
    </linearGradient>
    <filter id="gr"><feTurbulence type="fractalNoise" baseFrequency="0.81" numOctaves="2" stitchTiles="stitch"/><feColorMatrix type="saturate" values="0"/></filter>
  </defs>
  <rect width="1600" height="1067" fill="url(#bg)"/>
  <rect width="1600" height="1067" fill="url(#glow)"/>
  <g>
    <path d="M250 720 V470 a130 150 0 0 1 260 0 V720 Z" fill="url(#alcove)"/>
    <path d="M670 720 V470 a130 150 0 0 1 260 0 V720 Z" fill="url(#alcove)"/>
    <path d="M1090 720 V470 a130 150 0 0 1 260 0 V720 Z" fill="url(#alcove)"/>
  </g>
  <g stroke="#BCA88E" fill="none" stroke-width="2.5" opacity="0.32" stroke-linecap="round">
    <path d="M250 720 V470 a130 150 0 0 1 260 0 V720"/>
    <path d="M670 720 V470 a130 150 0 0 1 260 0 V720"/>
    <path d="M1090 720 V470 a130 150 0 0 1 260 0 V720"/>
    <line x1="120" y1="720" x2="1480" y2="720"/>
    <line x1="430" y1="868" x2="1170" y2="868"/>
    <line x1="500" y1="868" x2="500" y2="912"/>
    <line x1="1100" y1="868" x2="1100" y2="912"/>
  </g>
  <g>
    <line x1="560" y1="190" x2="560" y2="316" stroke="#BCA88E" stroke-width="1.8" opacity="0.3"/>
    <line x1="800" y1="190" x2="800" y2="350" stroke="#BCA88E" stroke-width="1.8" opacity="0.3"/>
    <line x1="1040" y1="190" x2="1040" y2="316" stroke="#BCA88E" stroke-width="1.8" opacity="0.3"/>
    <circle cx="560" cy="330" r="13" fill="#E8AE74" opacity="0.75"/>
    <circle cx="800" cy="364" r="13" fill="#E8AE74" opacity="0.85"/>
    <circle cx="1040" cy="330" r="13" fill="#E8AE74" opacity="0.75"/>
  </g>
  <rect width="1600" height="1067" filter="url(#gr)" opacity="0.16"/>
  <rect width="1600" height="1067" fill="#0C0A09" opacity="0.1"/>
</svg>
