<svg xmlns="http://www.w3.org/2000/svg" viewBox="0 0 1120 1400" width="1120" height="1400" role="img">
  <defs>
    <linearGradient id="bg" x1="0" y1="0" x2="0.3" y2="1">
      <stop offset="0" stop-color="#23201C"/>
      <stop offset="0.55" stop-color="#151310"/>
      <stop offset="1" stop-color="#0B0908"/>
    </linearGradient>
    <radialGradient id="glow" cx="0.5" cy="0.40" r="0.68">
      <stop offset="0" stop-color="#DEA978" stop-opacity="0.42"/>
      <stop offset="0.46" stop-color="#C77B45" stop-opacity="0.11"/>
      <stop offset="1" stop-color="#C77B45" stop-opacity="0"/>
    </radialGradient>
    <linearGradient id="water" x1="0" y1="0" x2="0" y2="1">
      <stop offset="0" stop-color="#F1ECE3" stop-opacity="0.10"/>
      <stop offset="1" stop-color="#F1ECE3" stop-opacity="0"/>
    </linearGradient>
    <filter id="gr"><feTurbulence type="fractalNoise" baseFrequency="0.85" numOctaves="2" stitchTiles="stitch"/><feColorMatrix type="saturate" values="0"/></filter>
  </defs>
  <rect width="1120" height="1400" fill="url(#bg)"/>
  <rect width="1120" height="1400" fill="url(#glow)"/>
  <rect x="0" y="900" width="1120" height="500" fill="url(#water)"/>
  <g stroke="#BCA88E" fill="none" stroke-width="2.5" opacity="0.3" stroke-linecap="round">
    <path d="M340 900 V520 a220 240 0 0 1 440 0 V900"/>
    <path d="M430 900 V560 a130 150 0 0 1 260 0 V900" opacity="0.6"/>
    <line x1="90" y1="900" x2="1030" y2="900"/>
    <line x1="150" y1="1010" x2="970" y2="1010" opacity="0.8"/>
    <line x1="210" y1="1112" x2="910" y2="1112" opacity="0.6"/>
    <line x1="280" y1="1206" x2="840" y2="1206" opacity="0.42"/>
  </g>
  <g fill="none" stroke="#E0A36B" stroke-width="2" opacity="0.55">
    <circle cx="560" cy="470" r="46"/>
    <circle cx="560" cy="470" r="86" opacity="0.5"/>
  </g>
  <circle cx="560" cy="470" r="14" fill="#DEA978" opacity="0.7"/>
  <rect width="1120" height="1400" filter="url(#gr)" opacity="0.17"/>
  <rect width="1120" height="1400" fill="#0B0908" opacity="0.1"/>
</svg>
