<svg xmlns="http://www.w3.org/2000/svg" viewBox="0 0 1600 1067" width="1600" height="1067" role="img">
  <defs>
    <linearGradient id="bg" x1="0" y1="0" x2="0.45" y2="1">
      <stop offset="0" stop-color="#2A211A"/>
      <stop offset="0.5" stop-color="#1A1511"/>
      <stop offset="1" stop-color="#0C0A09"/>
    </linearGradient>
    <radialGradient id="glow" cx="0.62" cy="0.30" r="0.62">
      <stop offset="0" stop-color="#E0A36B" stop-opacity="0.50"/>
      <stop offset="0.42" stop-color="#C77B45" stop-opacity="0.16"/>
      <stop offset="1" stop-color="#C77B45" stop-opacity="0"/>
    </radialGradient>
    <linearGradient id="shaft" x1="0" y1="0" x2="0" y2="1">
      <stop offset="0" stop-color="#F1ECE3" stop-opacity="0.16"/>
      <stop offset="1" stop-color="#F1ECE3" stop-opacity="0"/>
    </linearGradient>
    <filter id="gr"><feTurbulence type="fractalNoise" baseFrequency="0.82" numOctaves="2" stitchTiles="stitch"/><feColorMatrix type="saturate" values="0"/></filter>
  </defs>
  <rect width="1600" height="1067" fill="url(#bg)"/>
  <rect width="1600" height="1067" fill="url(#glow)"/>
  <polygon points="760,150 1010,150 1180,860 590,860" fill="url(#shaft)"/>
  <g stroke="#BCA88E" fill="none" stroke-width="2.5" opacity="0.34" stroke-linecap="round">
    <path d="M640 862 V470 A245 285 0 0 1 1130 470 V862"/>
    <path d="M712 862 V512 A173 210 0 0 1 1058 512 V862"/>
    <line x1="120" y1="862" x2="1480" y2="862"/>
    <line x1="300" y1="862" x2="300" y2="640"/>
    <line x1="300" y1="640" x2="470" y2="640"/>
    <path d="M1208 862 V742 q96 -14 168 0 V862" opacity="0.7"/>
  </g>
  <circle cx="885" cy="318" r="6" fill="#E0A36B" opacity="0.7"/>
  <line x1="885" y1="150" x2="885" y2="312" stroke="#BCA88E" stroke-width="2" opacity="0.3"/>
  <rect width="1600" height="1067" filter="url(#gr)" opacity="0.16"/>
  <rect width="1600" height="1067" fill="#0C0A09" opacity="0.10"/>
</svg>
